<svg enable-background="new 0 0 190.148 172.061" height="172.061" viewBox="0 0 190.148 172.061" width="190.148" xmlns="http://www.w3.org/2000/svg" xmlns:xlink="http://www.w3.org/1999/xlink"><clipPath id="a"><path d="m0 0h190.148v172.061h-190.148z"/></clipPath><g fill="#f6f6f6"><path clip-path="url(#a)" d="m37.877 158.023-33.749-58.455c-4.837-8.377-4.837-18.698 0-27.075l33.749-58.455c4.836-8.377 13.775-13.538 23.448-13.538h67.498c9.673 0 18.612 5.161 23.448 13.538l33.75 58.455c4.836 8.377 4.836 18.698 0 27.075l-33.75 58.456c-4.836 8.377-13.775 13.537-23.448 13.537h-67.498c-9.673 0-18.612-5.161-23.448-13.538"/><path clip-path="url(#a)" d="m37.877 158.023-33.749-58.455c-4.837-8.377-4.837-18.698 0-27.075l33.749-58.455c4.836-8.377 13.775-13.538 23.448-13.538h67.498c9.673 0 18.612 5.161 23.448 13.538l33.75 58.455c4.836 8.377 4.836 18.698 0 27.075l-33.75 58.456c-4.836 8.377-13.775 13.537-23.448 13.537h-67.498c-9.673 0-18.612-5.161-23.448-13.538z" stroke="#f6f6f6" stroke-miterlimit="10"/></g></svg>