<svg height="172.061" viewBox="0 0 190.148 172.061" width="190.148" xmlns="http://www.w3.org/2000/svg" xmlns:xlink="http://www.w3.org/1999/xlink"><clipPath id="a"><path d="m0 0h190.148v172.061h-190.148z"/></clipPath><g clip-path="url(#a)"><path d="m37.877 158.023-33.749-58.455a27.073 27.073 0 0 1 0-27.075l33.749-58.455a27.076 27.076 0 0 1 23.448-13.538h67.5a27.075 27.075 0 0 1 23.448 13.538l33.75 58.455a27.077 27.077 0 0 1 0 27.075l-33.75 58.456a27.075 27.075 0 0 1 -23.448 13.537h-67.5a27.076 27.076 0 0 1 -23.448-13.538" fill="#fff"/></g><g clip-path="url(#a)"><path d="m37.877 158.023-33.749-58.455a27.073 27.073 0 0 1 0-27.075l33.749-58.455a27.076 27.076 0 0 1 23.448-13.538h67.5a27.075 27.075 0 0 1 23.448 13.538l33.75 58.455a27.077 27.077 0 0 1 0 27.075l-33.75 58.456a27.075 27.075 0 0 1 -23.448 13.537h-67.5a27.076 27.076 0 0 1 -23.448-13.538z" fill="#fff" stroke="#fff" stroke-miterlimit="10"/></g></svg>